<?xml version="1.0" standalone="no"?>
<!DOCTYPE svg PUBLIC "-//W3C//DTD SVG 20010904//EN"
 "http://www.w3.org/TR/2001/REC-SVG-20010904/DTD/svg10.dtd">
<svg version="1.0" xmlns="http://www.w3.org/2000/svg"
 width="300.000000pt" height="300.000000pt" viewBox="0 0 621.000000 554.000000"
 preserveAspectRatio="xMidYMid meet">
<metadata>
Created by potrace 1.15, written by Peter Selinger 2001-2017
</metadata>
<g transform="translate(0.000000,554.000000) scale(0.100000,-0.100000)"
fill="#000000" stroke="none">
<path d="M2035 5436 c-45 -21 -168 -153 -435 -471 -73 -88 -193 -221 -264
-295 -361 -374 -648 -759 -803 -1078 -68 -140 -61 -197 30 -243 95 -49 371
-218 500 -307 l138 -95 -108 -56 c-176 -92 -308 -186 -495 -354 -188 -168
-471 -525 -485 -611 -6 -40 -6 -40 115 -225 52 -80 182 -285 289 -456 106
-170 205 -319 219 -330 16 -13 41 -20 68 -20 46 0 68 14 191 128 l60 55 5
-124 c7 -181 -20 -163 415 -264 237 -55 358 -87 375 -100 228 -179 492 -280
849 -325 43 -6 65 -16 105 -49 167 -135 407 -133 571 7 37 31 50 35 159 51
312 44 574 142 758 283 47 36 119 67 395 173 186 72 349 138 363 149 46 33 50
71 25 221 -12 74 -20 137 -18 139 2 3 64 -37 139 -87 75 -51 146 -92 159 -92
60 0 83 21 268 243 101 122 241 293 311 380 119 148 126 160 126 202 0 38 -7
52 -49 103 -75 89 -207 195 -361 288 l-65 39 105 5 c110 5 140 15 166 55 23
35 21 63 -30 335 -66 356 -65 352 -81 377 -29 43 -51 48 -249 53 l-188 5 135
90 c141 94 167 121 167 176 0 36 -103 227 -313 579 -339 569 -504 780 -608
780 -46 0 -237 -80 -335 -140 -40 -25 -51 -22 -34 11 7 12 10 43 8 70 -5 43
-15 61 -104 171 -121 149 -248 278 -299 302 -24 12 -48 16 -69 12 -40 -8 -137
-75 -231 -160 l-70 -63 3 112 c3 83 0 120 -11 147 -26 61 -50 68 -295 78 -557
23 -504 23 -540 0 -18 -11 -40 -36 -48 -56 -14 -32 -13 -46 11 -171 14 -74 24
-140 23 -145 -2 -6 -38 30 -80 78 -96 113 -266 281 -338 335 -100 76 -194 108
-245 85z m133 -306 c114 -76 366 -367 572 -660 51 -72 102 -137 113 -145 46
-32 141 -11 164 37 21 42 23 58 13 106 -5 26 -32 166 -60 312 -28 146 -53 273
-56 283 -5 15 3 17 73 17 43 0 135 -3 206 -7 l127 -6 0 -247 c0 -199 -3 -256
-16 -291 -32 -92 -45 -169 -34 -204 23 -70 104 -104 168 -71 37 19 55 51 71
125 37 176 168 380 324 503 l38 31 36 -34 c20 -19 66 -69 102 -112 l67 -77
-78 -158 c-43 -86 -107 -223 -143 -304 -78 -178 -83 -212 -31 -264 29 -29 41
-34 80 -34 57 0 86 24 199 165 97 119 169 191 255 252 72 52 266 153 293 153
49 0 267 -325 550 -819 l128 -224 -103 -63 c-219 -131 -423 -283 -445 -330
-26 -58 -3 -126 52 -156 16 -8 117 -11 370 -9 191 1 347 0 347 -2 0 -3 14 -77
30 -165 17 -89 30 -165 30 -171 0 -8 -81 -11 -255 -11 -285 0 -309 -4 -345
-62 -28 -44 -21 -100 16 -139 15 -16 37 -32 48 -35 55 -17 352 -173 436 -229
96 -63 250 -190 257 -211 3 -9 -177 -238 -394 -499 l-32 -38 -49 35 c-69 50
-236 149 -307 183 -69 32 -142 43 -174 25 -29 -15 -61 -68 -61 -101 0 -14 9
-52 21 -85 27 -80 56 -205 63 -284 l7 -65 -123 -48 c-68 -26 -126 -47 -129
-47 -3 0 6 42 19 93 19 74 23 111 20 192 -3 90 -10 119 -62 281 l-59 182 60
58 c104 102 145 217 123 342 -27 158 -143 290 -296 339 -30 9 -54 21 -54 27 0
6 -7 61 -15 121 -26 200 -36 330 -43 557 -6 187 -11 229 -25 251 -22 33 -185
141 -307 202 -252 126 -558 205 -797 205 -89 0 -92 -1 -599 -169 -280 -93
-529 -175 -553 -181 -25 -7 -57 -25 -72 -41 -26 -28 -27 -32 -34 -196 -7 -189
-37 -493 -63 -657 l-17 -109 -46 -16 c-110 -39 -209 -127 -257 -229 -24 -50
-27 -69 -27 -162 0 -95 3 -110 29 -163 15 -32 53 -84 83 -114 l55 -57 -41
-140 c-54 -188 -71 -274 -71 -354 0 -76 20 -179 49 -257 l20 -52 -62 14 c-34
7 -104 23 -154 35 l-93 20 0 67 c0 81 24 265 40 306 36 93 -61 190 -152 152
-42 -18 -168 -113 -281 -212 -48 -43 -90 -76 -91 -74 -2 2 -28 45 -58 94 -68
112 -208 334 -305 483 -43 66 -72 120 -69 129 12 30 153 208 234 295 276 295
537 481 802 571 79 27 98 37 117 66 47 69 27 120 -79 207 -165 137 -326 244
-573 384 -60 34 -111 63 -113 65 -9 8 105 205 197 340 58 86 187 256 260 345
64 77 301 340 307 340 3 0 35 -16 72 -37 90 -48 208 -134 315 -228 85 -74 253
-260 304 -337 62 -92 179 -87 220 11 22 51 9 83 -80 194 -156 197 -436 448
-605 543 -29 16 -52 34 -52 39 1 15 379 455 391 455 4 0 34 -18 67 -40z m1182
-1586 c201 -30 419 -107 571 -202 131 -81 117 -45 129 -313 16 -357 56 -709
86 -755 22 -32 72 -52 130 -51 66 1 120 -27 159 -82 26 -36 30 -52 30 -105 0
-84 -30 -130 -115 -175 -62 -33 -90 -70 -90 -119 0 -11 32 -124 71 -253 57
-186 71 -246 70 -294 -4 -238 -202 -474 -501 -596 -99 -40 -294 -86 -438 -104
-135 -16 -144 -19 -187 -65 -51 -54 -101 -75 -180 -74 -82 0 -116 15 -186 81
l-48 45 -138 19 c-505 70 -805 255 -907 561 -41 121 -37 175 34 436 33 121 60
235 60 252 0 46 -27 84 -79 112 -52 28 -86 72 -102 131 -29 107 66 231 175
229 54 -1 109 23 128 56 30 50 70 343 88 632 6 102 13 217 16 257 l6 72 346
116 c191 63 410 137 487 165 156 55 175 56 385 24z"/>
<path d="M2528 2820 c-297 -149 -308 -158 -308 -230 0 -61 58 -120 118 -120
26 0 559 265 589 292 37 34 47 79 28 126 -21 51 -52 72 -107 71 -35 0 -97 -27
-320 -139z"/>
<path d="M3272 2820 c-45 -28 -68 -82 -53 -130 20 -67 35 -74 339 -151 259
-66 285 -71 321 -60 48 14 81 61 81 115 0 27 -8 45 -32 71 -31 32 -46 37 -312
105 -153 38 -286 70 -295 70 -9 0 -31 -9 -49 -20z"/>
<path d="M2505 2221 c-46 -27 -65 -63 -65 -120 0 -42 5 -56 31 -86 60 -68 148
-68 209 1 24 28 30 43 30 82 0 59 -16 90 -59 119 -42 28 -104 30 -146 4z"/>
<path d="M3483 2220 c-44 -27 -66 -64 -66 -113 0 -114 116 -180 211 -120 56
35 78 122 47 183 -33 64 -128 89 -192 50z"/>
<path d="M2625 1571 c-133 -46 -218 -96 -309 -181 -95 -88 -178 -227 -209
-350 l-14 -55 990 -3 c545 -1 993 0 995 3 10 10 -29 149 -59 210 -82 166 -248
298 -471 375 l-83 28 -20 -26 c-81 -110 -178 -183 -277 -208 -155 -40 -301 28
-438 203 l-25 32 -80 -28z"/>
</g>
</svg>
